<svg viewBox="-270 150 900 900" xmlns="http://www.w3.org/2000/svg" role="img" aria-labelledby="hero-title-light">
  <title id="hero-title-light">Abstract flowing concentric lines, representing professional documentation</title>
  <g fill="none" stroke-linecap="round">
    <path d="M182.3 681.5 L176.9 673.4 L172.0 664.9 L167.4 656.2 L163.4 647.3 L159.8 638.2 L156.8 629.0 L154.3 619.7 L152.3 610.5 L150.9 601.3 L150.1 592.2 L149.8 583.3 L150.1 574.6 L151.0 566.1 L152.4 558.0 L154.4 550.2 L157.0 542.8 L160.1 535.9 L163.6 529.4 L167.7 523.5 L172.3 518.1 L177.3 513.2 L182.7 509.0 L188.5 505.5 L194.7 502.5 L201.1 500.3 L207.9 498.7 L214.9 497.9 L222.1 497.7 L229.4 498.2 L236.9 499.5 L244.4 501.4 L252.0 504.0 L259.6 507.2 L267.1 511.1 L274.5 515.7 L281.8 520.8 L288.8 526.5 L295.7 532.7 L302.3 539.4 L308.6 546.6 L314.6 554.2 L320.2 562.2 L325.4 570.5 L330.2 579.1 L334.5 587.9 L338.3 596.9 L341.6 606.1 L344.4 615.3 L346.7 624.5 L348.4 633.8 L349.5 642.9 L350.1 651.9 L350.1 660.7 L349.6 669.3 L348.4 677.7 L346.7 685.6 L344.5 693.3 L341.7 700.4 L338.4 707.2 L334.5 713.4" stroke="#1e3a8a" stroke-width="1.80" opacity="0.95"/>
    <path d="M137.2 703.2 L129.1 690.3 L121.6 677.1 L114.9 663.4 L108.9 649.4 L103.7 635.2 L99.3 620.9 L95.7 606.5 L92.9 592.1 L91.1 577.8 L90.0 563.7 L89.9 549.9 L90.7 536.4 L92.3 523.3 L94.8 510.8 L98.2 498.7 L102.3 487.4 L107.3 476.7 L113.1 466.8 L119.6 457.7 L126.9 449.5 L134.8 442.2 L143.3 435.9 L152.4 430.5 L162.1 426.2 L172.2 422.9 L182.7 420.7 L193.5 419.6 L204.7 419.6 L216.0 420.6 L227.6 422.8 L239.2 426.0 L250.9 430.3 L262.5 435.6 L274.0 441.9 L285.3 449.1 L296.4 457.3 L307.2 466.3 L317.7 476.2 L327.7 486.8 L337.2 498.2 L346.2 510.1 L354.7 522.7 L362.5 535.7 L369.6 549.2 L376.0 563.0 L381.6 577.1 L386.5 591.4 L390.5 605.8 L393.7 620.2 L396.0 634.5 L397.5 648.7 L398.1 662.7 L397.8 676.4 L396.7 689.7 L394.6 702.5 L391.8 714.9 L388.0 726.6 L383.4 737.6 L378.1 748.0 L372.0 757.5" stroke="#2547a3" stroke-width="1.74" opacity="0.88"/>
    <path d="M90.6 723.2 L80.0 705.6 L70.3 687.4 L61.6 668.7 L53.9 649.6 L47.2 630.2 L41.6 610.6 L37.2 591.0 L33.9 571.5 L31.7 552.1 L30.8 532.9 L31.0 514.2 L32.4 495.9 L35.0 478.3 L38.7 461.3 L43.6 445.2 L49.6 429.9 L56.7 415.6 L64.8 402.3 L73.9 390.2 L83.9 379.3 L94.8 369.6 L106.6 361.3 L119.1 354.3 L132.2 348.7 L146.0 344.6 L160.3 341.9 L175.0 340.7 L190.1 341.0 L205.5 342.7 L221.1 346.0 L236.7 350.6 L252.4 356.7 L268.0 364.2 L283.4 373.1 L298.5 383.2 L313.3 394.6 L327.7 407.2 L341.6 420.8 L354.9 435.5 L367.5 451.2 L379.3 467.6 L390.4 484.9 L400.6 502.8 L409.8 521.2 L418.1 540.1 L425.3 559.3 L431.5 578.8 L436.6 598.4 L440.5 618.0 L443.3 637.5 L444.9 656.8 L445.3 675.8 L444.5 694.3 L442.6 712.3 L439.4 729.6 L435.2 746.2 L429.8 762.0 L423.3 776.8 L415.7 790.7 L407.1 803.4" stroke="#2c53b8" stroke-width="1.68" opacity="0.81"/>
    <path d="M42.8 741.5 L29.9 719.0 L18.2 695.8 L7.7 672.0 L-1.6 647.7 L-9.5 623.0 L-16.0 598.2 L-21.1 573.4 L-24.8 548.6 L-27.0 524.1 L-27.7 499.9 L-26.9 476.3 L-24.6 453.3 L-20.9 431.1 L-15.7 409.8 L-9.2 389.5 L-1.2 370.4 L8.1 352.5 L18.7 336.0 L30.5 321.0 L43.4 307.4 L57.5 295.5 L72.5 285.3 L88.4 276.8 L105.2 270.2 L122.7 265.3 L140.8 262.3 L159.4 261.2 L178.5 261.9 L197.8 264.6 L217.4 269.0 L237.0 275.4 L256.6 283.5 L276.0 293.4 L295.3 304.9 L314.1 318.1 L332.5 332.9 L350.3 349.1 L367.4 366.7 L383.8 385.6 L399.3 405.6 L413.8 426.7 L427.3 448.8 L439.7 471.6 L450.8 495.1 L460.8 519.2 L469.4 543.7 L476.7 568.4 L482.5 593.2 L487.0 618.1 L490.0 642.8 L491.5 667.1 L491.5 691.1 L490.0 714.4 L487.1 737.1 L482.7 758.9 L476.9 779.7 L469.6 799.5 L461.1 818.0 L451.2 835.3 L440.0 851.1" stroke="#3461cc" stroke-width="1.62" opacity="0.74"/>
    <path d="M-6.2 758.1 L-21.2 730.7 L-34.8 702.3 L-46.9 673.3 L-57.5 643.7 L-66.4 613.8 L-73.6 583.7 L-79.2 553.5 L-82.9 523.5 L-85.0 493.9 L-85.2 464.7 L-83.7 436.2 L-80.4 408.5 L-75.3 381.7 L-68.5 356.2 L-60.1 331.9 L-50.0 309.0 L-38.3 287.6 L-25.1 268.0 L-10.5 250.1 L5.5 234.1 L22.7 220.1 L41.1 208.1 L60.6 198.3 L81.0 190.7 L102.2 185.2 L124.2 182.1 L146.7 181.2 L169.6 182.6 L192.9 186.2 L216.4 192.1 L240.0 200.3 L263.4 210.6 L286.7 223.0 L309.6 237.4 L332.0 253.9 L353.8 272.1 L374.9 292.2 L395.1 313.8 L414.4 337.1 L432.6 361.6 L449.6 387.5 L465.3 414.4 L479.7 442.3 L492.6 471.0 L504.0 500.3 L513.8 530.1 L521.9 560.1 L528.4 590.3 L533.1 620.3 L536.1 650.2 L537.3 679.7 L536.7 708.6 L534.4 736.7 L530.3 764.0 L524.4 790.2 L516.8 815.2 L507.6 838.9 L496.8 861.1 L484.4 881.6 L470.5 900.5" stroke="#3d70e0" stroke-width="1.56" opacity="0.67"/>
    <path d="M-56.5 773.0 L-73.4 740.4 L-88.6 706.9 L-102.1 672.6 L-113.7 637.7 L-123.4 602.4 L-131.1 566.9 L-136.9 531.5 L-140.6 496.3 L-142.2 461.4 L-141.8 427.3 L-139.3 393.9 L-134.7 361.5 L-128.2 330.3 L-119.6 300.5 L-109.1 272.3 L-96.7 245.7 L-82.5 221.0 L-66.5 198.3 L-49.0 177.7 L-29.9 159.3 L-9.3 143.3 L12.5 129.8 L35.6 118.7 L59.7 110.3 L84.7 104.4 L110.4 101.3 L136.8 100.8 L163.7 103.0 L190.9 107.8 L218.3 115.3 L245.7 125.4 L272.9 138.1 L299.9 153.2 L326.3 170.7 L352.2 190.5 L377.3 212.4 L401.5 236.4 L424.7 262.3 L446.7 290.0 L467.4 319.2 L486.7 349.9 L504.5 381.9 L520.6 414.9 L535.0 448.8 L547.7 483.4 L558.4 518.5 L567.2 553.9 L574.0 589.4 L578.8 624.8 L581.6 659.9 L582.3 694.4 L580.9 728.3 L577.5 761.2 L572.0 793.0 L564.5 823.6 L555.0 852.7 L543.6 880.2 L530.4 905.9 L515.3 929.8 L498.6 951.5" stroke="#4a83f0" stroke-width="1.50" opacity="0.60"/>
    <path d="M-107.8 786.1 L-126.4 748.4 L-143.1 709.5 L-157.7 669.9 L-170.2 629.6 L-180.4 588.9 L-188.5 548.1 L-194.2 507.3 L-197.6 466.8 L-198.7 426.9 L-197.3 387.7 L-193.7 349.5 L-187.7 312.5 L-179.4 276.9 L-168.8 242.9 L-156.1 210.8 L-141.3 180.6 L-124.4 152.6 L-105.6 127.0 L-84.9 103.8 L-62.6 83.2 L-38.7 65.4 L-13.3 50.3 L13.4 38.2 L41.2 29.1 L70.0 23.0 L99.7 20.0 L129.9 20.1 L160.7 23.2 L191.8 29.5 L223.0 38.7 L254.1 51.0 L285.0 66.1 L315.6 84.1 L345.5 104.8 L374.7 128.1 L402.9 153.9 L430.1 181.9 L456.0 212.2 L480.6 244.4 L503.6 278.5 L525.0 314.1 L544.6 351.2 L562.3 389.4 L578.1 428.7 L591.7 468.6 L603.2 509.1 L612.4 549.9 L619.4 590.8 L624.1 631.5 L626.4 671.7 L626.3 711.3 L623.9 750.1 L619.2 787.8 L612.1 824.1 L602.8 859.0 L591.2 892.2 L577.5 923.4 L561.7 952.6 L543.9 979.5 L524.3 1004.1" stroke="#5c99ff" stroke-width="1.44" opacity="0.53"/>
    <path d="M-160.2 797.3 L-180.3 754.4 L-198.2 710.2 L-213.7 665.1 L-226.8 619.4 L-237.5 573.3 L-245.6 527.0 L-251.1 480.9 L-254.0 435.2 L-254.2 390.1 L-251.8 345.9 L-246.7 303.0 L-239.1 261.4 L-228.9 221.4 L-216.2 183.4 L-201.1 147.4 L-183.7 113.8 L-164.0 82.6 L-142.1 54.1 L-118.3 28.5 L-92.6 5.8 L-65.2 -13.7 L-36.3 -30.1 L-5.9 -43.1 L25.7 -52.7 L58.3 -58.9 L91.8 -61.6 L126.0 -60.8 L160.6 -56.5 L195.5 -48.8 L230.4 -37.6 L265.3 -23.1 L299.8 -5.3 L333.8 15.7 L367.0 39.8 L399.4 66.7 L430.6 96.5 L460.6 128.8 L489.2 163.5 L516.1 200.4 L541.3 239.4 L564.5 280.1 L585.8 322.3 L604.8 365.9 L621.6 410.5 L636.1 455.9 L648.1 501.8 L657.5 548.1 L664.4 594.3 L668.7 640.3 L670.4 685.7 L669.4 730.4 L665.8 774.1 L659.5 816.4 L650.7 857.3 L639.4 896.4 L625.5 933.5 L609.3 968.4 L590.8 1000.9 L570.1 1030.9 L547.4 1058.1" stroke="#7fb0ff" stroke-width="1.38" opacity="0.46"/>
    <path d="M-213.7 806.7 L-235.0 758.4 L-253.9 708.9 L-270.1 658.3 L-283.7 607.1 L-294.4 555.5 L-302.4 503.9 L-307.4 452.4 L-309.6 401.4 L-308.8 351.2 L-305.1 302.1 L-298.4 254.4 L-289.0 208.3 L-276.7 164.1 L-261.7 122.0 L-244.0 82.3 L-223.8 45.3 L-201.2 11.1 L-176.2 -20.1 L-149.1 -48.1 L-120.0 -72.8 L-89.0 -93.9 L-56.4 -111.4 L-22.3 -125.2 L13.1 -135.2 L49.6 -141.3 L86.9 -143.5 L124.9 -141.9 L163.4 -136.3 L202.0 -126.8 L240.7 -113.6 L279.1 -96.6 L317.1 -75.9 L354.4 -51.8 L390.9 -24.2 L426.3 6.5 L460.4 40.3 L493.0 77.0 L524.0 116.3 L553.1 158.1 L580.2 202.0 L605.2 247.9 L627.8 295.4 L648.0 344.3 L665.7 394.4 L680.7 445.2 L693.0 496.7 L702.5 548.3 L709.1 599.9 L712.8 651.2 L713.5 701.9 L711.4 751.6 L706.4 800.1 L698.4 847.1 L687.7 892.4 L674.1 935.6 L657.9 976.6 L639.0 1015.1 L617.6 1050.9 L593.9 1083.7 L567.9 1113.5" stroke="#a3c7ff" stroke-width="1.32" opacity="0.39"/>
  </g>
</svg>
